<?xml version="1.0" encoding="utf-8"?>
<!-- Generator: Adobe Illustrator 15.0.0, SVG Export Plug-In . SVG Version: 6.00 Build 0)  -->
<!DOCTYPE svg PUBLIC "-//W3C//DTD SVG 1.1//EN" "http://www.w3.org/Graphics/SVG/1.1/DTD/svg11.dtd">
<svg version="1.1" id="Layer_1" xmlns="http://www.w3.org/2000/svg" xmlns:xlink="http://www.w3.org/1999/xlink" x="0px" y="0px"
	 width="112.308px" height="49px" viewBox="0 0 112.308 49" enable-background="new 0 0 112.308 49" xml:space="preserve">
<g>
	<linearGradient id="SVGID_1_" gradientUnits="userSpaceOnUse" x1="-0.1543" y1="2.0762" x2="112.1974" y2="2.0762">
		<stop  offset="0" style="stop-color:#F69695"/>
		<stop  offset="1" style="stop-color:#CB3B6D"/>
	</linearGradient>
	<path fill="url(#SVGID_1_)" d="M93.065,3.346c1.618-0.209,3.586-0.211,5.411,0.035c-0.276-1.102-0.579-2.137-0.84-2.523
		c-0.563-0.836-1.883-0.471-4.239-0.727s-3.549-0.178-4.108,0.594c-0.561,0.773-1.207,1.24-1.557,2.826
		c-0.046,0.205-0.086,0.406-0.127,0.602c0.578-0.084,1.123-0.172,1.661-0.254C90.426,3.717,91.624,3.531,93.065,3.346z"/>
	<linearGradient id="SVGID_2_" gradientUnits="userSpaceOnUse" x1="-0.1577" y1="7.1299" x2="112.1976" y2="7.1299">
		<stop  offset="0" style="stop-color:#F69695"/>
		<stop  offset="1" style="stop-color:#CB3B6D"/>
	</linearGradient>
	<path fill="url(#SVGID_2_)" d="M105.765,7.66c-0.363-0.318-0.573-0.541-2.206-1.684c-1.037-0.727-2.64-1.188-4.376-1.424
		c-1.825-0.246-3.793-0.244-5.411-0.035c-1.441,0.186-2.641,0.371-3.799,0.553c-0.538,0.084-1.085,0.168-1.659,0.256
		c-0.93,0.139-1.942,0.281-3.148,0.426c-1.668,0.203-2.98,0.561-3.903,1.059c-0.828,0.447-1.153,0.912-1.271,1.148
		c-0.334,0.656-0.072,1.457,0.584,1.789c0.148,0.074,0.303,0.119,0.458,0.137c0.476,0.051,0.955-0.158,1.235-0.563
		c0.096-0.082,0.587-0.443,1.989-0.729c0.35-0.07,0.755-0.139,1.229-0.197c1.873-0.227,3.284-0.441,4.626-0.652
		c0.089-0.014,0.18-0.027,0.271-0.043c1.195-0.186,2.322-0.361,3.729-0.543c1.65-0.211,3.548-0.152,5.123,0.1
		c0.205,0.033,0.407,0.068,0.602,0.107c0.945,0.195,1.725,0.465,2.194,0.791c1.094,0.768,1.582,1.16,1.766,1.314
		c0.064,0.043,0.13,0.084,0.194,0.127c0.577,0.32,1.367,0.457,1.799,0.029C106.254,9.17,106.126,7.98,105.765,7.66z"/>
	<g>
		<linearGradient id="SVGID_3_" gradientUnits="userSpaceOnUse" x1="-0.1543" y1="31.7383" x2="112.1973" y2="31.7383">
			<stop  offset="0" style="stop-color:#F69695"/>
			<stop  offset="1" style="stop-color:#CB3B6D"/>
		</linearGradient>
		<path fill="url(#SVGID_3_)" d="M96.79,29.076c-0.484-0.26-1.059-0.443-1.725-0.549c-0.667-0.105-1.38-0.145-2.138-0.117
			c-1.517,0.051-2.699,0.385-3.548,1c-0.851,0.613-1.301,1.471-1.354,2.568c0,0.602,0.124,1.098,0.372,1.49s0.602,0.705,1.06,0.941
			c0.456,0.234,0.999,0.404,1.627,0.51c0.626,0.104,1.306,0.156,2.038,0.156c1.883,0,3.222-0.307,4.021-0.922
			c0.798-0.613,1.195-1.418,1.195-2.412c0-0.627-0.137-1.162-0.411-1.607C97.652,29.691,97.273,29.338,96.79,29.076z"/>
		<linearGradient id="SVGID_4_" gradientUnits="userSpaceOnUse" x1="-0.1543" y1="28.6035" x2="112.1971" y2="28.6035">
			<stop  offset="0" style="stop-color:#F69695"/>
			<stop  offset="1" style="stop-color:#CB3B6D"/>
		</linearGradient>
		<path fill="url(#SVGID_4_)" d="M112.308,26.492c0-6.533-3.298-12.295-8.316-15.715c-0.039-0.023-0.084-0.045-0.122-0.068
			c-0.001-0.002-0.003-0.004-0.005-0.004c0.015,0.014,0.021,0.021,0.024,0.023c-0.012-0.014-0.597-0.385-0.024-0.023
			c-0.016-0.014-0.037-0.031-0.067-0.059c-1.402-0.93-2.933-1.676-4.562-2.213c-1.575-0.25-3.473-0.309-5.123-0.098
			c-1.407,0.182-2.534,0.357-3.729,0.543c-0.091,0.016-0.182,0.029-0.271,0.043c-1.342,0.209-2.753,0.426-4.626,0.65
			c-0.474,0.059-0.879,0.127-1.229,0.199c-5.934,3.215-9.966,9.498-9.966,16.721c0,8.855,6.061,16.299,14.258,18.408
			c1.518,0.391,3.111,0.598,4.751,0.598V49l8.638-5.582c0.002,0,0.004,0,0.007,0c0.282-0.145,0.562-0.297,0.837-0.455
			c0.003-0.002,0.006-0.002,0.008-0.004c0.273-0.158,0.542-0.324,0.807-0.494c0.004-0.004,0.008-0.004,0.012-0.008
			c0.264-0.172,0.524-0.348,0.779-0.533c0.004,0,0.008-0.002,0.009-0.006c0.258-0.186,0.512-0.377,0.759-0.574l0.034-0.023
			l-0.007,0.004c0.214-0.174,0.426-0.352,0.634-0.535c0.009-0.008,0.018-0.014,0.023-0.021c0.204-0.176,0.401-0.357,0.594-0.543
			c0.016-0.014,0.031-0.029,0.046-0.043c0.187-0.184,0.373-0.367,0.555-0.557c0.018-0.02,0.035-0.037,0.053-0.057
			c0.178-0.188,0.353-0.379,0.524-0.576c0.017-0.02,0.034-0.039,0.053-0.061c0.169-0.195,0.336-0.395,0.499-0.598
			c0.015-0.02,0.029-0.039,0.047-0.061c0.163-0.205,0.323-0.416,0.478-0.629c0.011-0.014,0.019-0.025,0.027-0.039
			c1.303-1.805,2.297-3.844,2.903-6.047c0.014-0.049,0.03-0.098,0.043-0.146c0.058-0.219,0.111-0.439,0.161-0.662
			c0.018-0.076,0.034-0.148,0.053-0.225c0.044-0.207,0.084-0.418,0.123-0.629c0.01-0.059,0.023-0.117,0.034-0.18
			c-0.005,0.021-0.01,0.043-0.015,0.061C112.205,28.711,112.308,27.613,112.308,26.492z M87.28,17.037
			c0.079-0.521,0.301-0.875,0.668-1.057c0.365-0.184,0.81-0.236,1.332-0.158c1.151,0.184,2.183,0.332,3.099,0.451
			c0.914,0.117,1.855,0.176,2.823,0.176c0.288,0,0.634-0.006,1.039-0.02c0.404-0.012,0.764-0.02,1.079-0.02
			c0.443,0,0.844,0.105,1.195,0.314c0.353,0.209,0.528,0.563,0.528,1.059c0,0.602-0.149,1-0.449,1.195
			c-0.302,0.195-0.662,0.309-1.08,0.334c-0.365,0.025-0.738,0.039-1.117,0.039c-0.378,0-0.739,0-1.077,0
			c-1.177,0-2.281-0.033-3.314-0.1c-1.032-0.064-2.111-0.201-3.235-0.41c-0.496-0.104-0.889-0.309-1.176-0.607
			C87.307,17.934,87.202,17.535,87.28,17.037z M101.024,34.664c-0.483,0.797-1.124,1.443-1.921,1.941
			c-0.798,0.496-1.712,0.855-2.746,1.078c-1.032,0.223-2.11,0.332-3.234,0.332c-1.281,0-2.443-0.123-3.489-0.371
			c-1.047-0.25-1.941-0.621-2.687-1.117c-0.744-0.496-1.319-1.131-1.725-1.902c-0.404-0.771-0.608-1.691-0.608-2.764
			c0-0.941,0.204-1.799,0.608-2.568c0.405-0.771,0.975-1.434,1.706-1.98c0.731-0.549,1.606-0.98,2.627-1.295
			c1.019-0.313,2.143-0.484,3.372-0.508c1.229-0.029,2.378,0.07,3.45,0.291c1.072,0.225,2.006,0.59,2.804,1.1
			s1.424,1.164,1.881,1.961c0.458,0.799,0.688,1.758,0.688,2.881C101.75,32.893,101.509,33.867,101.024,34.664z M103.927,23.742
			c-0.328,0.209-0.699,0.303-1.117,0.275c-2.301-0.053-4.603-0.066-6.901-0.039c-2.302,0.025-4.51,0.039-6.628,0.039
			c-1.071,0-2.013,0.006-2.822,0.02c-0.811,0.014-1.569,0.02-2.273,0.02c-1.335,0-2.002-0.521-2.002-1.568
			c0-0.471,0.144-0.836,0.432-1.098s0.811-0.393,1.57-0.393h8.194c2.353,0,4.346,0,5.979,0c1.635,0,3.157,0.039,4.57,0.119
			c0.417,0.027,0.77,0.156,1.058,0.391s0.432,0.576,0.432,1.02C104.417,23.131,104.254,23.535,103.927,23.742z"/>
	</g>
	<g>
		<g>
			<linearGradient id="SVGID_5_" gradientUnits="userSpaceOnUse" x1="-0.1543" y1="26.0557" x2="112.197" y2="26.0557">
				<stop  offset="0" style="stop-color:#F69695"/>
				<stop  offset="1" style="stop-color:#CB3B6D"/>
			</linearGradient>
			<path fill="url(#SVGID_5_)" d="M17.859,14.512c1.541,0,2.927,0.156,4.157,0.467c1.23,0.314,2.279,0.756,3.149,1.328
				c0.868,0.576,1.54,1.256,2.017,2.043c0.474,0.787,0.713,1.641,0.713,2.559c0,1.115-0.188,2.066-0.565,2.854
				c-0.378,0.787-0.895,1.443-1.55,1.967c-0.656,0.527-1.444,0.938-2.361,1.232c-0.919,0.295-1.919,0.49-3.002,0.59v0.934
				c0,0.395-0.007,0.754-0.024,1.082c-0.017,0.328-0.024,0.623-0.024,0.887h1.083c0.917,0,1.763,0,2.533,0
				c0.77,0,1.541-0.008,2.313-0.025c0.771-0.016,1.566-0.031,2.386-0.049s1.754-0.025,2.805-0.025c0.262,0,0.549,0,0.86,0
				s0.599-0.016,0.861-0.049c0.328,0,0.64-0.016,0.935-0.049c0.624,0,1.123,0.172,1.502,0.516c0.376,0.346,0.565,0.846,0.565,1.502
				s-0.155,1.131-0.468,1.426c-0.313,0.295-0.682,0.459-1.107,0.492c-0.95,0.033-2.115,0.057-3.493,0.074
				c-1.377,0.016-2.813,0.025-4.305,0.025s-2.993-0.01-4.502-0.025c-1.509-0.018-2.87-0.025-4.084-0.025c-1.344,0-2.557,0-3.64,0
				c-1.082,0-2.133,0.008-3.149,0.025c-1.016,0.016-2.059,0.025-3.123,0.025c-1.066,0-2.238,0-3.518,0
				c-0.263,0-0.697-0.01-1.304-0.025c-0.607-0.018-1.14-0.025-1.6-0.025c-0.559,0-1.017-0.178-1.378-0.541
				C0.181,33.34,0,32.832,0,32.176c0-0.559,0.213-1.01,0.639-1.354c0.426-0.346,0.902-0.518,1.428-0.518
				c0.951,0,1.574,0.01,1.869,0.025c0.296,0.018,0.525,0.023,0.689,0.023c1.64,0,3.198,0.018,4.675,0.051
				c1.475,0.031,2.95,0.049,4.427,0.049h2.215V27.6c-2.429-0.229-4.322-0.902-5.683-2.018c-1.362-1.115-2.043-2.639-2.043-4.576
				c0-1.049,0.238-1.975,0.714-2.779c0.475-0.803,1.131-1.484,1.967-2.041c0.837-0.559,1.846-0.977,3.027-1.256
				C15.104,14.652,16.415,14.512,17.859,14.512z M7.281,12.938c-1.377,0-2.065-0.623-2.065-1.869c0-0.523,0.212-0.967,0.639-1.328
				C6.28,9.379,6.953,9.232,7.872,9.297c0.263,0.033,1.016,0.049,2.264,0.049c1.246,0,2.705,0,4.378,0
				c1.082,0,2.238-0.008,3.469-0.023c1.23-0.018,2.451-0.025,3.665-0.025c1.476,0,2.878,0.008,4.206,0.025
				c1.329,0.016,2.468,0.057,3.42,0.123c0.557,0.064,1.024,0.236,1.402,0.516c0.376,0.279,0.565,0.697,0.565,1.256
				c0,0.721-0.189,1.18-0.565,1.377c-0.378,0.195-0.861,0.295-1.451,0.295H13.776c-1.248,0-2.419,0-3.518,0
				C9.158,12.889,8.168,12.906,7.281,12.938z M12.196,44.918c1.476,0.031,2.918,0.057,4.33,0.072
				c1.408,0.018,2.722,0.025,3.935,0.025c1.378,0,2.902-0.025,4.576-0.074c1.673-0.049,3.428-0.092,5.264-0.123
				c0.721,0,1.271,0.172,1.648,0.518c0.376,0.344,0.581,0.744,0.615,1.205c0.064,0.688-0.091,1.23-0.467,1.623
				c-0.379,0.393-0.83,0.623-1.354,0.689c-1.247,0.064-2.558,0.098-3.937,0.098c-1.378,0-2.492,0-3.345,0h-3.444
				c-1.181,0-2.526,0-4.035,0c-1.508,0-3.214,0.016-5.116,0.049c-1.376,0-2.378-0.279-3.001-0.836
				c-0.624-0.559-0.901-1.543-0.837-2.951c0.032-0.723,0.05-1.354,0.05-1.895s0-1.059,0-1.551s0-0.99,0-1.5c0-0.508,0-1.074,0-1.697
				c0-0.787,0.254-1.336,0.763-1.648s1.091-0.467,1.747-0.467c0.459,0,0.926,0.172,1.401,0.516c0.477,0.346,0.713,0.83,0.713,1.451
				c0,0.395-0.009,0.682-0.023,0.861c-0.018,0.182-0.033,0.346-0.049,0.492c-0.018,0.148-0.025,0.305-0.025,0.467
				c0,0.166,0,0.395,0,0.689c0,0.459,0,0.943,0,1.451s-0.017,1.059-0.049,1.648c-0.033,0.459,0,0.721,0.099,0.787
				C11.753,44.883,11.934,44.918,12.196,44.918z M12.693,6.936c-0.591-0.131-1.025-0.344-1.304-0.639
				C11.11,6,10.988,5.543,11.021,4.918c0.032-0.656,0.312-1.139,0.837-1.451c0.523-0.311,1.082-0.418,1.673-0.32
				c0.721,0.164,1.466,0.297,2.237,0.395s1.615,0.164,2.534,0.197c0.918,0.066,1.68,0.115,2.287,0.146
				c0.607,0.033,1.272,0.033,1.993,0c0.524,0,1.083,0.133,1.673,0.395s0.886,0.705,0.886,1.328c0,0.82-0.229,1.346-0.688,1.574
				c-0.46,0.23-0.935,0.361-1.428,0.393c-0.229,0.033-0.468,0.051-0.713,0.051s-0.5,0-0.762,0c-0.623,0-1.174-0.018-1.649-0.051
				c-0.475-0.031-1.074-0.064-1.795-0.098c-1.148-0.064-2.148-0.131-3.001-0.197C14.251,7.215,13.447,7.1,12.693,6.936z
				 M17.859,18.104c-0.656,0-1.304,0.041-1.943,0.123s-1.205,0.23-1.697,0.443s-0.886,0.525-1.18,0.934
				c-0.297,0.41-0.444,0.943-0.444,1.6c0,0.984,0.476,1.697,1.428,2.141c0.951,0.441,2.295,0.697,4.033,0.762
				c1.049,0.033,1.926-0.033,2.633-0.197c0.705-0.162,1.262-0.385,1.672-0.664c0.41-0.277,0.706-0.605,0.887-0.984
				c0.18-0.375,0.271-0.762,0.271-1.156c0-0.621-0.166-1.123-0.493-1.5c-0.327-0.375-0.762-0.68-1.304-0.91
				c-0.54-0.229-1.148-0.385-1.82-0.467S18.549,18.104,17.859,18.104z"/>
			<linearGradient id="SVGID_6_" gradientUnits="userSpaceOnUse" x1="-0.1543" y1="26.2207" x2="112.1969" y2="26.2207">
				<stop  offset="0" style="stop-color:#F69695"/>
				<stop  offset="1" style="stop-color:#CB3B6D"/>
			</linearGradient>
			<path fill="url(#SVGID_6_)" d="M38.445,13.43c-1.377,0-2.066-0.672-2.066-2.018c0-0.523,0.189-0.951,0.566-1.279
				c0.377-0.326,1.025-0.492,1.943-0.492h6.297c0.82,0,1.6,0.01,2.337,0.025c0.738,0.016,1.467,0.033,2.189,0.049
				c0.722,0.018,1.451,0.041,2.19,0.074c0.737,0.033,1.549,0.049,2.435,0.049c1.246,0,1.886,0.559,1.919,1.674
				c0.032,0.623-0.147,1.098-0.542,1.426c-0.393,0.328-0.886,0.477-1.475,0.443c-1.838-0.098-3.689-0.139-5.561-0.123
				c-1.87,0.018-3.641,0.025-5.313,0.025c-0.885,0-1.714,0.016-2.484,0.047C40.11,13.365,39.298,13.398,38.445,13.43z
				 M46.317,14.955c1.377-0.031,2.583,0.146,3.616,0.541c1.033,0.393,1.886,0.943,2.558,1.648c0.673,0.705,1.173,1.549,1.502,2.533
				c0.327,0.984,0.491,2.066,0.491,3.248c0,1.377-0.214,2.559-0.64,3.541c-0.426,0.984-1.001,1.805-1.722,2.461
				c-0.722,0.656-1.566,1.139-2.534,1.451s-1.992,0.469-3.074,0.469c-2.56,0-4.535-0.73-5.93-2.191
				c-1.394-1.459-2.09-3.385-2.09-5.781c0-1.18,0.197-2.254,0.59-3.221c0.395-0.969,0.942-1.797,1.648-2.484
				c0.706-0.689,1.532-1.223,2.484-1.6C44.168,15.193,45.202,14.988,46.317,14.955z M42.48,7.23
				c-0.624-0.131-1.082-0.385-1.379-0.762c-0.294-0.377-0.394-0.846-0.294-1.402c0.131-0.623,0.426-1.049,0.885-1.279
				s0.984-0.295,1.575-0.197c0.786,0.164,1.443,0.287,1.968,0.369s1.009,0.148,1.451,0.197S47.564,4.23,47.99,4.23s0.935,0,1.525,0
				c0.557,0,1.123,0.105,1.697,0.318c0.573,0.215,0.861,0.648,0.861,1.305c0,0.854-0.214,1.385-0.64,1.598
				c-0.428,0.215-0.903,0.338-1.428,0.369c-0.426,0.035-0.771,0.051-1.033,0.051s-0.573,0-0.935,0c-0.524,0-1.001-0.016-1.427-0.051
				c-0.426-0.031-0.845-0.074-1.255-0.123s-0.844-0.105-1.304-0.17C43.595,7.461,43.07,7.363,42.48,7.23z M46.366,18.596
				c-1.278,0.098-2.222,0.551-2.829,1.354s-0.909,1.779-0.909,2.926c0,1.477,0.36,2.568,1.082,3.271
				c0.722,0.707,1.656,1.059,2.805,1.059c1.376,0,2.369-0.41,2.976-1.229c0.607-0.82,0.911-1.838,0.911-3.051
				c0-0.592-0.075-1.156-0.222-1.697c-0.147-0.543-0.386-1.018-0.713-1.428c-0.329-0.41-0.747-0.721-1.256-0.934
				C47.702,18.652,47.088,18.563,46.366,18.596z M56.841,32.158c1.589,0,3.1,0.125,4.532,0.375c1.434,0.25,2.696,0.699,3.787,1.354
				c1.09,0.654,1.955,1.535,2.594,2.641c0.638,1.107,0.958,2.486,0.958,4.137c0.03,2.867-1.013,4.947-3.131,6.24
				c-2.12,1.291-5.033,1.955-8.74,1.986c-1.497,0.031-2.892-0.125-4.184-0.467c-1.294-0.344-2.415-0.857-3.365-1.543
				c-0.951-0.686-1.698-1.551-2.243-2.594c-0.545-1.045-0.818-2.268-0.818-3.67c0-1.4,0.305-2.631,0.913-3.691
				c0.606-1.059,1.416-1.939,2.429-2.641c1.012-0.701,2.15-1.23,3.412-1.59C54.247,32.338,55.531,32.158,56.841,32.158z
				 M57.075,35.896c-0.812,0-1.599,0.094-2.361,0.281c-0.765,0.188-1.45,0.469-2.057,0.84c-0.607,0.375-1.091,0.859-1.449,1.451
				s-0.554,1.309-0.584,2.148c-0.032,0.904,0.147,1.652,0.537,2.244s0.889,1.066,1.496,1.426c0.606,0.357,1.286,0.615,2.033,0.771
				s1.495,0.232,2.244,0.232c0.81,0,1.658-0.053,2.547-0.164c0.888-0.109,1.706-0.326,2.452-0.652
				c0.75-0.328,1.364-0.795,1.849-1.402c0.481-0.609,0.723-1.41,0.723-2.408c0-0.996-0.227-1.814-0.678-2.453
				s-1.044-1.129-1.774-1.473c-0.734-0.344-1.536-0.576-2.407-0.701C58.772,35.914,57.916,35.867,57.075,35.896z M57.879,7.084
				c-0.033-0.689,0.18-1.205,0.64-1.551c0.459-0.344,0.968-0.518,1.526-0.518c0.523,0,0.983,0.158,1.376,0.469
				c0.395,0.313,0.623,0.746,0.69,1.305c0.031,0.295,0.039,0.582,0.023,0.859c-0.017,0.279-0.023,0.633-0.023,1.059v7.33h0.934
				h2.706c-0.033-1.574-0.058-3.148-0.075-4.723c-0.016-1.574-0.057-3.197-0.122-4.871c-0.033-0.654,0.172-1.148,0.616-1.475
				c0.442-0.328,0.942-0.494,1.499-0.494c0.492,0,0.943,0.148,1.354,0.443s0.647,0.723,0.714,1.279
				c0.031,0.197,0.041,0.469,0.023,0.813c-0.017,0.344-0.023,0.713-0.023,1.107c0,0.393,0.007,0.713,0.023,0.959
				c0.018,0.246,0.025,0.564,0.025,0.959c0,0.393,0.008,0.926,0.024,1.6c0.016,0.672,0.024,1.631,0.024,2.877
				c0,1.115-0.009,2.361-0.024,3.74c-0.017,1.377-0.024,2.779-0.024,4.205c0,1.428-0.008,2.822-0.025,4.184
				c-0.017,1.359-0.023,2.582-0.023,3.664c0,0.656-0.222,1.164-0.664,1.525c-0.443,0.361-0.942,0.525-1.501,0.492
				c-0.559-0.064-1.018-0.271-1.377-0.615c-0.362-0.344-0.542-0.828-0.542-1.451c0-1.443,0.008-3.123,0.023-5.043
				c0.018-1.92,0.042-3.697,0.075-5.338h-2.017h-1.623v3.887c0,0.82,0,1.615,0,2.385c0,0.771-0.018,1.535-0.05,2.289
				c-0.034,0.559-0.214,1.041-0.542,1.451s-0.771,0.648-1.327,0.713c-0.658,0.066-1.19-0.113-1.6-0.541
				c-0.411-0.426-0.615-1-0.615-1.723v-5.805c0-2.492,0-4.994,0-7.502C57.978,12.52,57.944,9.871,57.879,7.084z"/>
		</g>
	</g>
</g>
</svg>
