<?xml version="1.0" encoding="utf-8"?>
<!-- Generator: Adobe Illustrator 15.0.0, SVG Export Plug-In . SVG Version: 6.00 Build 0)  -->
<!DOCTYPE svg PUBLIC "-//W3C//DTD SVG 1.1//EN" "http://www.w3.org/Graphics/SVG/1.1/DTD/svg11.dtd">
<svg version="1.1" id="Layer_1" xmlns="http://www.w3.org/2000/svg" xmlns:xlink="http://www.w3.org/1999/xlink" x="0px" y="0px"
	 width="576px" height="576px" viewBox="0 0 576 576" enable-background="new 0 0 576 576" xml:space="preserve">
<g>
	<rect x="-0.21" fill="#A7A9AC" width="576.68" height="576.68"/>
	<g>
		<path fill="#FFFFFF" d="M120.566,251.696c0,72.187,58.579,130.668,130.843,130.668c72.292,0,130.871-58.495,130.871-130.668
			c0-72.159-58.579-130.654-130.843-130.668C179.146,121.042,120.594,179.538,120.566,251.696z M345.63,251.696
			c0,51.969-42.146,94.087-94.192,94.102c-52.018-0.015-94.221-42.133-94.221-94.102c0-51.94,42.203-94.073,94.221-94.073
			C303.483,157.623,345.63,199.742,345.63,251.696z"/>
		<polygon fill="#FFFFFF" points="455.666,429.643 429.615,455.651 313.887,340.063 339.938,314.055 		"/>
	</g>
</g>
</svg>
